<?xml version="1.0" encoding="UTF-8"?>
<!DOCTYPE svg PUBLIC "-//W3C//DTD SVG 1.1//EN" "http://www.w3.org/Graphics/SVG/1.1/DTD/svg11.dtd">
<!-- Creator: CorelDRAW -->
<svg xmlns="http://www.w3.org/2000/svg" xml:space="preserve" width="0.885913in" height="0.885913in" version="1.1" style="shape-rendering:geometricPrecision; text-rendering:geometricPrecision; image-rendering:optimizeQuality; fill-rule:evenodd; clip-rule:evenodd"
viewBox="0 0 226.56 226.56"
 xmlns:xlink="http://www.w3.org/1999/xlink"
 xmlns:xodm="http://www.corel.com/coreldraw/odm/2003">
 <defs>
  <style type="text/css">
   <![CDATA[
    .fil1 {fill:#FEFEFE}
    .fil0 {fill:url(#id0)}
   ]]>
  </style>
  <linearGradient id="id0" gradientUnits="userSpaceOnUse" x1="0.01" y1="113.28" x2="226.56" y2="113.28">
   <stop offset="0" style="stop-opacity:1; stop-color:#CA7486"/>
   <stop offset="1" style="stop-opacity:1; stop-color:#515AA6"/>
  </linearGradient>
 </defs>
 <g id="Layer_x0020_1">
  <metadata id="CorelCorpID_0Corel-Layer"/>
  <path class="fil0" d="M113.28 0c62.56,0 113.28,50.72 113.28,113.28 0,62.56 -50.72,113.28 -113.28,113.28 -62.56,0 -113.28,-50.72 -113.28,-113.28 0,-62.56 50.72,-113.28 113.28,-113.28z"/>
  <path class="fil1" d="M175.75 107.23l25.81 -37.47c-47.89,-1.15 -86.07,-10.67 -114.21,27.26 -3.01,4.06 -5.72,7.77 -8.11,11.18 -22.86,32.58 -17.69,38.64 12.25,78.14 3.78,-7.78 5.58,-23.94 9.27,-33.1 4.2,-10.43 8.39,-15.88 15.36,-24.78 17.04,-21.77 23.69,-21.23 59.62,-21.23z"/>
  <path class="fil1" d="M25.01 70.28c4.37,9.19 14.97,23.36 21.22,32.5 4.53,6.63 6.41,4.68 28.88,3.62 16.99,-30.57 36.43,-33.75 41.33,-36.62l-91.43 0.5z"/>
 </g>
</svg>
